<?xml version="1.0" encoding="utf-8"?>
<!-- Generator: Adobe Illustrator 16.0.4, SVG Export Plug-In . SVG Version: 6.00 Build 0)  -->
<!DOCTYPE svg PUBLIC "-//W3C//DTD SVG 1.1//EN" "http://www.w3.org/Graphics/SVG/1.1/DTD/svg11.dtd">
<svg version="1.1" id="Laag_1" xmlns="http://www.w3.org/2000/svg" xmlns:xlink="http://www.w3.org/1999/xlink" x="0px" y="0px"
	 width="16px" height="16px" viewBox="0 0 16 16" enable-background="new 0 0 16 16" xml:space="preserve">
<path fill-rule="evenodd" clip-rule="evenodd" fill="#221E1B" d="M8,0.4c-4.42,0-8,3.58-8,8c0,3.54,2.29,6.53,5.47,7.59
	c0.4,0.07,0.55-0.17,0.55-0.39c0-0.19-0.01-0.69-0.01-1.36c-2.23,0.48-2.7-1.07-2.7-1.07C2.95,12.24,2.42,12,2.42,12
	c-0.73-0.5,0.06-0.49,0.06-0.49c0.8,0.06,1.23,0.83,1.23,0.83c0.71,1.22,1.87,0.87,2.33,0.67c0.07-0.52,0.28-0.87,0.51-1.07
	c-1.78-0.2-3.64-0.89-3.64-3.95c0-0.87,0.31-1.59,0.82-2.15C3.64,5.63,3.36,4.81,3.8,3.71c0,0,0.67-0.21,2.2,0.82
	c0.64-0.18,1.32-0.27,2-0.27c0.68,0,1.36,0.09,2,0.27c1.53-1.04,2.2-0.82,2.2-0.82c0.44,1.1,0.16,1.92,0.08,2.12
	c0.51,0.56,0.82,1.27,0.82,2.15c0,3.07-1.87,3.75-3.65,3.95c0.29,0.25,0.54,0.74,0.54,1.48c0,1.07-0.01,1.93-0.01,2.19
	c0,0.21,0.14,0.46,0.55,0.38C13.71,14.93,16,11.93,16,8.4C16,3.98,12.42,0.4,8,0.4z"/>
</svg>
